<?xml version="1.0" encoding="UTF-8"?>
<svg id="Layer_1" xmlns="http://www.w3.org/2000/svg" baseProfile="tiny" version="1.2" viewBox="0 0 384 384">
  <!-- Generator: Adobe Illustrator 29.3.0, SVG Export Plug-In . SVG Version: 2.1.0 Build 146)  -->
  <path d="M104.57,129.93c5.65-7.15,14.36-10.84,22.86-13.49,32.75-10.23,85.26-9.99,117.96.42,7.36,2.34,15.73,5.7,20.89,11.53v32.61c-3.37-1.55-6.55-3.49-10.06-4.79-22.93-8.5-48.74.38-61.73,20.87-.66,1.03-2.74,5.46-3.1,5.78-.21.19-.39.34-.69.34-14.6.19-29.2-.53-43.61-2.79-10.4-1.63-21.05-4.02-30.59-8.48v12.64c22.49,7.95,46.84,9.96,70.62,10.24-2.36,11.8-.42,23.73,5.12,34.31-25.54.71-51.89-1.19-75.74-10.75v11.95c8.1,2.77,16.4,4.9,24.84,6.38,13.25,2.33,26.72,3.21,40.14,3.88l18.37-.29c14.46,15.42,36.16,21.28,56.27,13.85l10.15-4.69v5.29c0,1.02-1.36,2.95-2.04,3.77-8.97,10.75-40.2,14.8-53.75,15.87-28.48,2.25-71.81,1.94-96.69-13.51-3.6-2.24-7.52-5.06-9.24-9.02v-29.03l8.87-5.81c-2.7-2.49-6.37-4.01-7.91-7.61-.57-1.33-.46-2.41-.96-3.65v-27.32c2.59-3.27,5.93-5.69,9.21-8.19-3.04-1.22-7.87-4.93-8.71-8.19-.25-.96.11-2.03-.5-2.74v-29.38h0ZM173.08,120.81c-13.44.56-44.21,4.11-54.49,12.74-2.15,1.81-3.29,3.63-.48,5.55,5.44,3.72,24.89,6.01,32.05,6.84,24.18,2.8,49.04,3.51,73.27.68,6.94-.81,24.08-3.15,29.38-7.13,5.64-4.23-2.01-7.59-5.74-9.28-20.14-9.1-52.03-10.32-73.99-9.4h0Z"/>
  <path d="M279.24,200.62c.23,2.47.23,7.09,0,9.56-2.95,31.93-42.61,47.45-67.03,26.97-30.54-25.62-10.46-75.42,28.99-72.72,18.85,1.29,36.28,17.12,38.04,36.19ZM222.83,182.89l-7.36,7.61,15.32,15.41-15.03,15.02c-.33.29-.38.46-.17.86.22.43,6.28,6.48,6.83,6.85.2.14.34.38.65.3l14.7-14.68.97-.29,14.73,14.67c.29.33.46.38.86.17.43-.22,6.48-6.29,6.85-6.84.14-.2.38-.34.3-.65l-14.67-14.72-.29-.97,14.65-14.74c.33-.29.38-.46.17-.86-.22-.43-6.28-6.48-6.83-6.85-.2-.14-.34-.38-.65-.3l-15.4,15.34-15.64-15.34h0Z"/>
</svg>